<mxfile host="app.diagrams.net" agent="Mozilla/5.0 (Windows NT 10.0; Win64; x64) AppleWebKit/537.36 (KHTML, like Gecko) Chrome/131.0.0.0 Safari/537.36" version="25.0.3">
  <diagram name="Page-1" id="64xgK3DtBkwMxU74o1Kr">
    <mxGraphModel dx="1290" dy="603" grid="1" gridSize="10" guides="1" tooltips="1" connect="1" arrows="1" fold="1" page="1" pageScale="1" pageWidth="850" pageHeight="1100" math="0" shadow="0">
      <root>
        <mxCell id="0" />
        <mxCell id="1" parent="0" />
        <mxCell id="DDGugA1gryHFAeShUxWw-9" style="edgeStyle=orthogonalEdgeStyle;rounded=0;orthogonalLoop=1;jettySize=auto;html=1;" edge="1" parent="1" source="DDGugA1gryHFAeShUxWw-2" target="DDGugA1gryHFAeShUxWw-3">
          <mxGeometry relative="1" as="geometry" />
        </mxCell>
        <mxCell id="DDGugA1gryHFAeShUxWw-2" value="Start" style="ellipse;whiteSpace=wrap;html=1;aspect=fixed;" vertex="1" parent="1">
          <mxGeometry x="70" y="80" width="80" height="80" as="geometry" />
        </mxCell>
        <mxCell id="DDGugA1gryHFAeShUxWw-10" style="edgeStyle=orthogonalEdgeStyle;rounded=0;orthogonalLoop=1;jettySize=auto;html=1;" edge="1" parent="1" source="DDGugA1gryHFAeShUxWw-3" target="DDGugA1gryHFAeShUxWw-4">
          <mxGeometry relative="1" as="geometry" />
        </mxCell>
        <mxCell id="DDGugA1gryHFAeShUxWw-3" value="Load point cloud data (.LAZ format)" style="rounded=0;whiteSpace=wrap;html=1;" vertex="1" parent="1">
          <mxGeometry x="195" y="90" width="120" height="60" as="geometry" />
        </mxCell>
        <mxCell id="DDGugA1gryHFAeShUxWw-13" style="edgeStyle=orthogonalEdgeStyle;rounded=0;orthogonalLoop=1;jettySize=auto;html=1;entryX=0.5;entryY=0;entryDx=0;entryDy=0;" edge="1" parent="1" source="DDGugA1gryHFAeShUxWw-4" target="DDGugA1gryHFAeShUxWw-5">
          <mxGeometry relative="1" as="geometry" />
        </mxCell>
        <mxCell id="DDGugA1gryHFAeShUxWw-4" value="Preprocess for noise removal and downsizing" style="rounded=0;whiteSpace=wrap;html=1;" vertex="1" parent="1">
          <mxGeometry x="380" y="90" width="120" height="60" as="geometry" />
        </mxCell>
        <mxCell id="DDGugA1gryHFAeShUxWw-14" style="edgeStyle=orthogonalEdgeStyle;rounded=0;orthogonalLoop=1;jettySize=auto;html=1;entryX=1;entryY=0.5;entryDx=0;entryDy=0;exitX=0.5;exitY=1;exitDx=0;exitDy=0;" edge="1" parent="1" source="DDGugA1gryHFAeShUxWw-5" target="DDGugA1gryHFAeShUxWw-6">
          <mxGeometry relative="1" as="geometry" />
        </mxCell>
        <mxCell id="DDGugA1gryHFAeShUxWw-5" value="Segment data to isolate regions of interest" style="rounded=0;whiteSpace=wrap;html=1;" vertex="1" parent="1">
          <mxGeometry x="550" y="150" width="120" height="60" as="geometry" />
        </mxCell>
        <mxCell id="DDGugA1gryHFAeShUxWw-15" style="edgeStyle=orthogonalEdgeStyle;rounded=0;orthogonalLoop=1;jettySize=auto;html=1;" edge="1" parent="1" source="DDGugA1gryHFAeShUxWw-6" target="DDGugA1gryHFAeShUxWw-7">
          <mxGeometry relative="1" as="geometry" />
        </mxCell>
        <mxCell id="DDGugA1gryHFAeShUxWw-6" value="Classify planar structures into roofs and facades" style="rounded=0;whiteSpace=wrap;html=1;" vertex="1" parent="1">
          <mxGeometry x="380" y="210" width="120" height="60" as="geometry" />
        </mxCell>
        <mxCell id="DDGugA1gryHFAeShUxWw-16" value="" style="edgeStyle=orthogonalEdgeStyle;rounded=0;orthogonalLoop=1;jettySize=auto;html=1;" edge="1" parent="1" source="DDGugA1gryHFAeShUxWw-7" target="DDGugA1gryHFAeShUxWw-8">
          <mxGeometry relative="1" as="geometry" />
        </mxCell>
        <mxCell id="DDGugA1gryHFAeShUxWw-7" value="Visualize results for analysis" style="rounded=0;whiteSpace=wrap;html=1;" vertex="1" parent="1">
          <mxGeometry x="195" y="210" width="120" height="60" as="geometry" />
        </mxCell>
        <mxCell id="DDGugA1gryHFAeShUxWw-8" value="End" style="ellipse;whiteSpace=wrap;html=1;aspect=fixed;" vertex="1" parent="1">
          <mxGeometry x="70" y="200" width="80" height="80" as="geometry" />
        </mxCell>
      </root>
    </mxGraphModel>
  </diagram>
</mxfile>
